<mxfile host="app.diagrams.net" modified="2021-10-19T05:42:03.274Z" agent="5.0 (Windows NT 10.0; Win64; x64) AppleWebKit/537.36 (KHTML, like Gecko) Chrome/94.0.4606.71 Safari/537.36" etag="xFmoepMUm6FVnVjHKimg" version="15.5.4" type="github">
  <diagram id="GY7lZdEplLIA3Kv_nCij" name="Page-1">
    <mxGraphModel dx="1431" dy="587" grid="1" gridSize="10" guides="1" tooltips="1" connect="1" arrows="1" fold="1" page="1" pageScale="1" pageWidth="850" pageHeight="1100" math="0" shadow="0">
      <root>
        <mxCell id="0" />
        <mxCell id="1" parent="0" />
        <mxCell id="ljeEJ4leO2OX1EdWCJa--2" value="&lt;font style=&quot;font-size: 18px&quot;&gt;Project Structure&lt;/font&gt;" style="text;html=1;align=center;verticalAlign=middle;resizable=0;points=[];autosize=1;strokeColor=none;fillColor=none;" vertex="1" parent="1">
          <mxGeometry x="275" y="40" width="150" height="20" as="geometry" />
        </mxCell>
        <mxCell id="ljeEJ4leO2OX1EdWCJa--3" value="MyProject" style="text;html=1;align=center;verticalAlign=middle;resizable=0;points=[];autosize=1;strokeColor=none;fillColor=none;fontSize=18;fontStyle=1" vertex="1" parent="1">
          <mxGeometry x="290" y="150" width="100" height="30" as="geometry" />
        </mxCell>
        <mxCell id="ljeEJ4leO2OX1EdWCJa--4" value="com.p1" style="text;html=1;align=center;verticalAlign=middle;resizable=0;points=[];autosize=1;strokeColor=none;fillColor=none;fontSize=18;" vertex="1" parent="1">
          <mxGeometry x="87.5" y="205" width="70" height="30" as="geometry" />
        </mxCell>
        <mxCell id="ljeEJ4leO2OX1EdWCJa--5" value="com.p2" style="text;html=1;align=center;verticalAlign=middle;resizable=0;points=[];autosize=1;strokeColor=none;fillColor=none;fontSize=18;" vertex="1" parent="1">
          <mxGeometry x="282.5" y="205" width="70" height="30" as="geometry" />
        </mxCell>
        <mxCell id="ljeEJ4leO2OX1EdWCJa--6" value="com.p3" style="text;html=1;align=center;verticalAlign=middle;resizable=0;points=[];autosize=1;strokeColor=none;fillColor=none;fontSize=18;" vertex="1" parent="1">
          <mxGeometry x="452.5" y="205" width="70" height="30" as="geometry" />
        </mxCell>
        <mxCell id="ljeEJ4leO2OX1EdWCJa--7" value="A" style="text;html=1;align=center;verticalAlign=middle;resizable=0;points=[];autosize=1;strokeColor=none;fillColor=none;fontSize=18;" vertex="1" parent="1">
          <mxGeometry x="105" y="260" width="30" height="30" as="geometry" />
        </mxCell>
        <mxCell id="ljeEJ4leO2OX1EdWCJa--8" value="B" style="text;html=1;align=center;verticalAlign=middle;resizable=0;points=[];autosize=1;strokeColor=none;fillColor=none;fontSize=18;" vertex="1" parent="1">
          <mxGeometry x="470" y="260" width="30" height="30" as="geometry" />
        </mxCell>
        <mxCell id="ljeEJ4leO2OX1EdWCJa--9" value="C" style="text;html=1;align=center;verticalAlign=middle;resizable=0;points=[];autosize=1;strokeColor=none;fillColor=none;fontSize=18;" vertex="1" parent="1">
          <mxGeometry x="300" y="260" width="30" height="30" as="geometry" />
        </mxCell>
        <mxCell id="ljeEJ4leO2OX1EdWCJa--10" value="D" style="text;html=1;align=center;verticalAlign=middle;resizable=0;points=[];autosize=1;strokeColor=none;fillColor=none;fontSize=18;" vertex="1" parent="1">
          <mxGeometry x="105" y="320" width="30" height="30" as="geometry" />
        </mxCell>
        <mxCell id="ljeEJ4leO2OX1EdWCJa--11" value="class" style="text;html=1;align=center;verticalAlign=middle;resizable=0;points=[];autosize=1;strokeColor=none;fillColor=none;fontSize=18;" vertex="1" parent="1">
          <mxGeometry x="50" y="260" width="60" height="30" as="geometry" />
        </mxCell>
        <mxCell id="ljeEJ4leO2OX1EdWCJa--12" value="class" style="text;html=1;align=center;verticalAlign=middle;resizable=0;points=[];autosize=1;strokeColor=none;fillColor=none;fontSize=18;" vertex="1" parent="1">
          <mxGeometry x="250" y="260" width="60" height="30" as="geometry" />
        </mxCell>
        <mxCell id="ljeEJ4leO2OX1EdWCJa--13" value="class" style="text;html=1;align=center;verticalAlign=middle;resizable=0;points=[];autosize=1;strokeColor=none;fillColor=none;fontSize=18;" vertex="1" parent="1">
          <mxGeometry x="410" y="260" width="60" height="30" as="geometry" />
        </mxCell>
        <mxCell id="ljeEJ4leO2OX1EdWCJa--14" value="class" style="text;html=1;align=center;verticalAlign=middle;resizable=0;points=[];autosize=1;strokeColor=none;fillColor=none;fontSize=18;" vertex="1" parent="1">
          <mxGeometry x="50" y="320" width="60" height="30" as="geometry" />
        </mxCell>
        <mxCell id="ljeEJ4leO2OX1EdWCJa--15" value="JVM" style="text;html=1;align=center;verticalAlign=middle;resizable=0;points=[];autosize=1;strokeColor=none;fillColor=none;fontSize=18;" vertex="1" parent="1">
          <mxGeometry x="425" y="450" width="50" height="30" as="geometry" />
        </mxCell>
        <mxCell id="ljeEJ4leO2OX1EdWCJa--17" value="JDK" style="text;html=1;align=center;verticalAlign=middle;resizable=0;points=[];autosize=1;strokeColor=none;fillColor=none;fontSize=18;" vertex="1" parent="1">
          <mxGeometry x="350" y="500" width="50" height="30" as="geometry" />
        </mxCell>
        <mxCell id="ljeEJ4leO2OX1EdWCJa--18" value="JRE" style="text;html=1;align=center;verticalAlign=middle;resizable=0;points=[];autosize=1;strokeColor=none;fillColor=none;fontSize=18;" vertex="1" parent="1">
          <mxGeometry x="480" y="500" width="50" height="30" as="geometry" />
        </mxCell>
        <mxCell id="ljeEJ4leO2OX1EdWCJa--19" value="Java Development Kit" style="text;html=1;align=center;verticalAlign=middle;resizable=0;points=[];autosize=1;strokeColor=none;fillColor=none;fontSize=18;" vertex="1" parent="1">
          <mxGeometry x="140" y="500" width="190" height="30" as="geometry" />
        </mxCell>
        <mxCell id="ljeEJ4leO2OX1EdWCJa--20" value="Java Runtime Environment" style="text;html=1;align=center;verticalAlign=middle;resizable=0;points=[];autosize=1;strokeColor=none;fillColor=none;fontSize=18;" vertex="1" parent="1">
          <mxGeometry x="550" y="500" width="230" height="30" as="geometry" />
        </mxCell>
        <mxCell id="ljeEJ4leO2OX1EdWCJa--21" value="jar : java archive" style="text;html=1;align=center;verticalAlign=middle;resizable=0;points=[];autosize=1;strokeColor=none;fillColor=none;fontSize=18;" vertex="1" parent="1">
          <mxGeometry x="490" y="535" width="150" height="30" as="geometry" />
        </mxCell>
        <mxCell id="ljeEJ4leO2OX1EdWCJa--22" value="javac" style="text;html=1;align=center;verticalAlign=middle;resizable=0;points=[];autosize=1;strokeColor=none;fillColor=none;fontSize=18;" vertex="1" parent="1">
          <mxGeometry x="270" y="535" width="60" height="30" as="geometry" />
        </mxCell>
        <mxCell id="ljeEJ4leO2OX1EdWCJa--23" value="class App" style="text;html=1;align=center;verticalAlign=middle;resizable=0;points=[];autosize=1;strokeColor=none;fillColor=none;fontSize=18;" vertex="1" parent="1">
          <mxGeometry x="250" y="320" width="90" height="30" as="geometry" />
        </mxCell>
        <mxCell id="ljeEJ4leO2OX1EdWCJa--24" value="" style="endArrow=none;html=1;rounded=0;fontSize=18;" edge="1" parent="1">
          <mxGeometry width="50" height="50" relative="1" as="geometry">
            <mxPoint x="400" y="440" as="sourcePoint" />
            <mxPoint x="530" y="440" as="targetPoint" />
          </mxGeometry>
        </mxCell>
        <mxCell id="ljeEJ4leO2OX1EdWCJa--25" value="App" style="text;html=1;align=center;verticalAlign=middle;resizable=0;points=[];autosize=1;strokeColor=none;fillColor=none;fontSize=18;fontStyle=1" vertex="1" parent="1">
          <mxGeometry x="440" y="410" width="50" height="30" as="geometry" />
        </mxCell>
        <mxCell id="ljeEJ4leO2OX1EdWCJa--26" value="psvm" style="text;html=1;align=center;verticalAlign=middle;resizable=0;points=[];autosize=1;strokeColor=none;fillColor=none;fontSize=18;" vertex="1" parent="1">
          <mxGeometry x="290" y="350" width="60" height="30" as="geometry" />
        </mxCell>
        <mxCell id="ljeEJ4leO2OX1EdWCJa--27" value="" style="endArrow=classic;html=1;rounded=0;fontSize=18;entryX=0.913;entryY=1.033;entryDx=0;entryDy=0;entryPerimeter=0;" edge="1" parent="1" target="ljeEJ4leO2OX1EdWCJa--7">
          <mxGeometry width="50" height="50" relative="1" as="geometry">
            <mxPoint x="320" y="390" as="sourcePoint" />
            <mxPoint x="370" y="340" as="targetPoint" />
          </mxGeometry>
        </mxCell>
        <mxCell id="ljeEJ4leO2OX1EdWCJa--28" value="" style="endArrow=classic;html=1;rounded=0;fontSize=18;entryX=1.073;entryY=0.82;entryDx=0;entryDy=0;entryPerimeter=0;" edge="1" parent="1" target="ljeEJ4leO2OX1EdWCJa--10">
          <mxGeometry width="50" height="50" relative="1" as="geometry">
            <mxPoint x="310" y="400" as="sourcePoint" />
            <mxPoint x="590" y="370" as="targetPoint" />
          </mxGeometry>
        </mxCell>
        <mxCell id="ljeEJ4leO2OX1EdWCJa--29" value="" style="endArrow=classic;html=1;rounded=0;fontSize=18;entryX=0.44;entryY=1.113;entryDx=0;entryDy=0;entryPerimeter=0;" edge="1" parent="1" target="ljeEJ4leO2OX1EdWCJa--13">
          <mxGeometry width="50" height="50" relative="1" as="geometry">
            <mxPoint x="310" y="430" as="sourcePoint" />
            <mxPoint x="360" y="380" as="targetPoint" />
          </mxGeometry>
        </mxCell>
        <mxCell id="ljeEJ4leO2OX1EdWCJa--30" value="create objects" style="text;html=1;align=center;verticalAlign=middle;resizable=0;points=[];autosize=1;strokeColor=none;fillColor=none;fontSize=18;" vertex="1" parent="1">
          <mxGeometry x="385" y="350" width="130" height="30" as="geometry" />
        </mxCell>
        <mxCell id="ljeEJ4leO2OX1EdWCJa--31" value="Object Oriented Programming" style="text;html=1;align=center;verticalAlign=middle;resizable=0;points=[];autosize=1;strokeColor=none;fillColor=none;fontSize=18;" vertex="1" parent="1">
          <mxGeometry x="600" y="170" width="250" height="30" as="geometry" />
        </mxCell>
        <mxCell id="ljeEJ4leO2OX1EdWCJa--32" value="1. Access Specifiers of Class" style="text;html=1;align=center;verticalAlign=middle;resizable=0;points=[];autosize=1;strokeColor=none;fillColor=none;fontSize=18;fontStyle=1" vertex="1" parent="1">
          <mxGeometry x="77.5" y="620" width="260" height="30" as="geometry" />
        </mxCell>
        <mxCell id="ljeEJ4leO2OX1EdWCJa--33" value="1. public&amp;nbsp;" style="text;html=1;align=center;verticalAlign=middle;resizable=0;points=[];autosize=1;strokeColor=none;fillColor=none;fontSize=18;" vertex="1" parent="1">
          <mxGeometry x="105" y="650" width="90" height="30" as="geometry" />
        </mxCell>
        <mxCell id="ljeEJ4leO2OX1EdWCJa--34" value="2. default" style="text;html=1;align=center;verticalAlign=middle;resizable=0;points=[];autosize=1;strokeColor=none;fillColor=none;fontSize=18;" vertex="1" parent="1">
          <mxGeometry x="105" y="720" width="90" height="30" as="geometry" />
        </mxCell>
        <mxCell id="ljeEJ4leO2OX1EdWCJa--35" value="class" style="text;html=1;align=center;verticalAlign=middle;resizable=0;points=[];autosize=1;strokeColor=none;fillColor=none;fontSize=18;" vertex="1" parent="1">
          <mxGeometry x="50" y="260" width="60" height="30" as="geometry" />
        </mxCell>
        <mxCell id="ljeEJ4leO2OX1EdWCJa--36" value="class D" style="text;html=1;align=center;verticalAlign=middle;resizable=0;points=[];autosize=1;strokeColor=none;fillColor=none;fontSize=18;" vertex="1" parent="1">
          <mxGeometry x="570" y="630" width="70" height="30" as="geometry" />
        </mxCell>
        <mxCell id="ljeEJ4leO2OX1EdWCJa--37" value="" style="endArrow=none;html=1;rounded=0;fontSize=18;" edge="1" parent="1">
          <mxGeometry width="50" height="50" relative="1" as="geometry">
            <mxPoint x="480" y="655" as="sourcePoint" />
            <mxPoint x="560" y="655" as="targetPoint" />
          </mxGeometry>
        </mxCell>
        <mxCell id="ljeEJ4leO2OX1EdWCJa--38" value="- this class can be accessed from within the package and outside the package" style="text;html=1;align=center;verticalAlign=middle;resizable=0;points=[];autosize=1;strokeColor=none;fillColor=none;fontSize=18;" vertex="1" parent="1">
          <mxGeometry x="120" y="680" width="640" height="30" as="geometry" />
        </mxCell>
        <mxCell id="ljeEJ4leO2OX1EdWCJa--39" value="- it can be accessed within the package only and not outside the package" style="text;html=1;align=center;verticalAlign=middle;resizable=0;points=[];autosize=1;strokeColor=none;fillColor=none;fontSize=18;" vertex="1" parent="1">
          <mxGeometry x="120" y="750" width="600" height="30" as="geometry" />
        </mxCell>
        <mxCell id="ljeEJ4leO2OX1EdWCJa--40" value="public" style="text;html=1;align=center;verticalAlign=middle;resizable=0;points=[];autosize=1;strokeColor=none;fillColor=none;fontSize=18;" vertex="1" parent="1">
          <mxGeometry x="10" y="235" width="60" height="30" as="geometry" />
        </mxCell>
        <mxCell id="ljeEJ4leO2OX1EdWCJa--41" value="public" style="text;html=1;align=center;verticalAlign=middle;resizable=0;points=[];autosize=1;strokeColor=none;fillColor=none;fontSize=18;" vertex="1" parent="1">
          <mxGeometry x="480" y="235" width="60" height="30" as="geometry" />
        </mxCell>
        <mxCell id="ljeEJ4leO2OX1EdWCJa--42" value="Access Specifiers of Methods" style="text;html=1;align=center;verticalAlign=middle;resizable=0;points=[];autosize=1;strokeColor=none;fillColor=none;fontSize=18;fontStyle=1" vertex="1" parent="1">
          <mxGeometry x="70" y="840" width="270" height="30" as="geometry" />
        </mxCell>
        <mxCell id="ljeEJ4leO2OX1EdWCJa--43" value="Methods have 4 access specifiers" style="text;html=1;align=center;verticalAlign=middle;resizable=0;points=[];autosize=1;strokeColor=none;fillColor=none;fontSize=18;" vertex="1" parent="1">
          <mxGeometry x="105" y="895" width="290" height="30" as="geometry" />
        </mxCell>
        <mxCell id="ljeEJ4leO2OX1EdWCJa--44" value="1. If a method is marked as public, it can be accessed within the package as well as outside the package" style="text;html=1;align=center;verticalAlign=middle;resizable=0;points=[];autosize=1;strokeColor=none;fillColor=none;fontSize=18;" vertex="1" parent="1">
          <mxGeometry x="110" y="960" width="850" height="30" as="geometry" />
        </mxCell>
        <mxCell id="ljeEJ4leO2OX1EdWCJa--45" value="public" style="text;html=1;align=center;verticalAlign=middle;resizable=0;points=[];autosize=1;strokeColor=none;fillColor=none;fontSize=18;" vertex="1" parent="1">
          <mxGeometry x="220" y="925" width="60" height="30" as="geometry" />
        </mxCell>
        <mxCell id="ljeEJ4leO2OX1EdWCJa--46" value="protected" style="text;html=1;align=center;verticalAlign=middle;resizable=0;points=[];autosize=1;strokeColor=none;fillColor=none;fontSize=18;" vertex="1" parent="1">
          <mxGeometry x="220" y="1000" width="90" height="30" as="geometry" />
        </mxCell>
        <mxCell id="ljeEJ4leO2OX1EdWCJa--47" value="2. If a method is marked as protected, it can be accessed within the package. &lt;br&gt;&amp;nbsp; &amp;nbsp; &amp;nbsp; &amp;nbsp; &amp;nbsp; &amp;nbsp; &amp;nbsp; &amp;nbsp;To access it from outside the package we must call it using the object of sub-class" style="text;html=1;align=center;verticalAlign=middle;resizable=0;points=[];autosize=1;strokeColor=none;fillColor=none;fontSize=18;" vertex="1" parent="1">
          <mxGeometry x="55" y="1040" width="740" height="50" as="geometry" />
        </mxCell>
        <mxCell id="ljeEJ4leO2OX1EdWCJa--48" value="default" style="text;html=1;align=center;verticalAlign=middle;resizable=0;points=[];autosize=1;strokeColor=none;fillColor=none;fontSize=18;" vertex="1" parent="1">
          <mxGeometry x="215" y="1110" width="70" height="30" as="geometry" />
        </mxCell>
        <mxCell id="ljeEJ4leO2OX1EdWCJa--49" value="3. If a method is marked as default, it can be accessed within the package but not outside the package&lt;br&gt;&amp;nbsp; &amp;nbsp; &amp;nbsp; &amp;nbsp; &amp;nbsp; &amp;nbsp; &amp;nbsp; &amp;nbsp;&amp;nbsp;" style="text;html=1;align=center;verticalAlign=middle;resizable=0;points=[];autosize=1;strokeColor=none;fillColor=none;fontSize=18;" vertex="1" parent="1">
          <mxGeometry x="105" y="1150" width="830" height="50" as="geometry" />
        </mxCell>
        <mxCell id="ljeEJ4leO2OX1EdWCJa--50" value="private" style="text;html=1;align=center;verticalAlign=middle;resizable=0;points=[];autosize=1;strokeColor=none;fillColor=none;fontSize=18;" vertex="1" parent="1">
          <mxGeometry x="215" y="1200" width="70" height="30" as="geometry" />
        </mxCell>
        <mxCell id="ljeEJ4leO2OX1EdWCJa--51" value="4. If a method is marked as private, it can be accessed only within the same class&amp;nbsp; &amp;nbsp; &amp;nbsp; &amp;nbsp; &amp;nbsp; &amp;nbsp; &amp;nbsp; &amp;nbsp;&amp;nbsp;" style="text;html=1;align=center;verticalAlign=middle;resizable=0;points=[];autosize=1;strokeColor=none;fillColor=none;fontSize=18;" vertex="1" parent="1">
          <mxGeometry x="105" y="1240" width="750" height="30" as="geometry" />
        </mxCell>
        <mxCell id="ljeEJ4leO2OX1EdWCJa--52" value="MyProject" style="text;html=1;align=center;verticalAlign=middle;resizable=0;points=[];autosize=1;strokeColor=none;fillColor=none;fontSize=18;fontStyle=1" vertex="1" parent="1">
          <mxGeometry x="390" y="1330" width="100" height="30" as="geometry" />
        </mxCell>
        <mxCell id="ljeEJ4leO2OX1EdWCJa--53" value="com.p1" style="text;html=1;align=center;verticalAlign=middle;resizable=0;points=[];autosize=1;strokeColor=none;fillColor=none;fontSize=18;" vertex="1" parent="1">
          <mxGeometry x="187.5" y="1385" width="70" height="30" as="geometry" />
        </mxCell>
        <mxCell id="ljeEJ4leO2OX1EdWCJa--54" value="com.p2" style="text;html=1;align=center;verticalAlign=middle;resizable=0;points=[];autosize=1;strokeColor=none;fillColor=none;fontSize=18;" vertex="1" parent="1">
          <mxGeometry x="382.5" y="1385" width="70" height="30" as="geometry" />
        </mxCell>
        <mxCell id="ljeEJ4leO2OX1EdWCJa--55" value="com.p3" style="text;html=1;align=center;verticalAlign=middle;resizable=0;points=[];autosize=1;strokeColor=none;fillColor=none;fontSize=18;" vertex="1" parent="1">
          <mxGeometry x="552.5" y="1385" width="70" height="30" as="geometry" />
        </mxCell>
        <mxCell id="ljeEJ4leO2OX1EdWCJa--56" value="A" style="text;html=1;align=center;verticalAlign=middle;resizable=0;points=[];autosize=1;strokeColor=none;fillColor=none;fontSize=18;" vertex="1" parent="1">
          <mxGeometry x="205" y="1440" width="30" height="30" as="geometry" />
        </mxCell>
        <mxCell id="ljeEJ4leO2OX1EdWCJa--57" value="B" style="text;html=1;align=center;verticalAlign=middle;resizable=0;points=[];autosize=1;strokeColor=none;fillColor=none;fontSize=18;" vertex="1" parent="1">
          <mxGeometry x="667.5" y="1440" width="30" height="30" as="geometry" />
        </mxCell>
        <mxCell id="ljeEJ4leO2OX1EdWCJa--58" value="C" style="text;html=1;align=center;verticalAlign=middle;resizable=0;points=[];autosize=1;strokeColor=none;fillColor=none;fontSize=18;" vertex="1" parent="1">
          <mxGeometry x="400" y="1440" width="30" height="30" as="geometry" />
        </mxCell>
        <mxCell id="ljeEJ4leO2OX1EdWCJa--59" value="D" style="text;html=1;align=center;verticalAlign=middle;resizable=0;points=[];autosize=1;strokeColor=none;fillColor=none;fontSize=18;" vertex="1" parent="1">
          <mxGeometry x="195" y="1560" width="30" height="30" as="geometry" />
        </mxCell>
        <mxCell id="ljeEJ4leO2OX1EdWCJa--60" value="class" style="text;html=1;align=center;verticalAlign=middle;resizable=0;points=[];autosize=1;strokeColor=none;fillColor=none;fontSize=18;" vertex="1" parent="1">
          <mxGeometry x="150" y="1440" width="60" height="30" as="geometry" />
        </mxCell>
        <mxCell id="ljeEJ4leO2OX1EdWCJa--61" value="class" style="text;html=1;align=center;verticalAlign=middle;resizable=0;points=[];autosize=1;strokeColor=none;fillColor=none;fontSize=18;" vertex="1" parent="1">
          <mxGeometry x="350" y="1440" width="60" height="30" as="geometry" />
        </mxCell>
        <mxCell id="ljeEJ4leO2OX1EdWCJa--62" value="class" style="text;html=1;align=center;verticalAlign=middle;resizable=0;points=[];autosize=1;strokeColor=none;fillColor=none;fontSize=18;" vertex="1" parent="1">
          <mxGeometry x="607.5" y="1440" width="60" height="30" as="geometry" />
        </mxCell>
        <mxCell id="ljeEJ4leO2OX1EdWCJa--63" value="class" style="text;html=1;align=center;verticalAlign=middle;resizable=0;points=[];autosize=1;strokeColor=none;fillColor=none;fontSize=18;" vertex="1" parent="1">
          <mxGeometry x="140" y="1560" width="60" height="30" as="geometry" />
        </mxCell>
        <mxCell id="ljeEJ4leO2OX1EdWCJa--64" value="class App" style="text;html=1;align=center;verticalAlign=middle;resizable=0;points=[];autosize=1;strokeColor=none;fillColor=none;fontSize=18;" vertex="1" parent="1">
          <mxGeometry x="350" y="1560" width="90" height="30" as="geometry" />
        </mxCell>
        <mxCell id="ljeEJ4leO2OX1EdWCJa--65" value="psvm" style="text;html=1;align=center;verticalAlign=middle;resizable=0;points=[];autosize=1;strokeColor=none;fillColor=none;fontSize=18;" vertex="1" parent="1">
          <mxGeometry x="390" y="1590" width="60" height="30" as="geometry" />
        </mxCell>
        <mxCell id="ljeEJ4leO2OX1EdWCJa--68" value="class" style="text;html=1;align=center;verticalAlign=middle;resizable=0;points=[];autosize=1;strokeColor=none;fillColor=none;fontSize=18;" vertex="1" parent="1">
          <mxGeometry x="150" y="1440" width="60" height="30" as="geometry" />
        </mxCell>
        <mxCell id="ljeEJ4leO2OX1EdWCJa--69" value="public" style="text;html=1;align=center;verticalAlign=middle;resizable=0;points=[];autosize=1;strokeColor=none;fillColor=none;fontSize=18;" vertex="1" parent="1">
          <mxGeometry x="90" y="1440" width="60" height="30" as="geometry" />
        </mxCell>
        <mxCell id="ljeEJ4leO2OX1EdWCJa--70" value="public" style="text;html=1;align=center;verticalAlign=middle;resizable=0;points=[];autosize=1;strokeColor=none;fillColor=none;fontSize=18;" vertex="1" parent="1">
          <mxGeometry x="552.5" y="1440" width="60" height="30" as="geometry" />
        </mxCell>
        <mxCell id="ljeEJ4leO2OX1EdWCJa--71" value="public" style="text;html=1;align=center;verticalAlign=middle;resizable=0;points=[];autosize=1;strokeColor=none;fillColor=none;fontSize=18;" vertex="1" parent="1">
          <mxGeometry x="80" y="1560" width="60" height="30" as="geometry" />
        </mxCell>
        <mxCell id="ljeEJ4leO2OX1EdWCJa--72" value="display()" style="text;html=1;align=center;verticalAlign=middle;resizable=0;points=[];autosize=1;strokeColor=none;fillColor=none;fontSize=18;" vertex="1" parent="1">
          <mxGeometry x="140" y="1475" width="80" height="30" as="geometry" />
        </mxCell>
        <mxCell id="ljeEJ4leO2OX1EdWCJa--73" value="display()" style="text;html=1;align=center;verticalAlign=middle;resizable=0;points=[];autosize=1;strokeColor=none;fillColor=none;fontSize=18;" vertex="1" parent="1">
          <mxGeometry x="625" y="1470" width="80" height="30" as="geometry" />
        </mxCell>
        <mxCell id="ljeEJ4leO2OX1EdWCJa--74" value="display()" style="text;html=1;align=center;verticalAlign=middle;resizable=0;points=[];autosize=1;strokeColor=none;fillColor=none;fontSize=18;" vertex="1" parent="1">
          <mxGeometry x="382.5" y="1475" width="80" height="30" as="geometry" />
        </mxCell>
        <mxCell id="ljeEJ4leO2OX1EdWCJa--75" value="display()" style="text;html=1;align=center;verticalAlign=middle;resizable=0;points=[];autosize=1;strokeColor=none;fillColor=none;fontSize=18;" vertex="1" parent="1">
          <mxGeometry x="145" y="1590" width="80" height="30" as="geometry" />
        </mxCell>
        <mxCell id="ljeEJ4leO2OX1EdWCJa--76" value="A a=new A();&amp;nbsp;&lt;br&gt;a.display()" style="text;html=1;align=center;verticalAlign=middle;resizable=0;points=[];autosize=1;strokeColor=none;fillColor=none;fontSize=18;" vertex="1" parent="1">
          <mxGeometry x="360" y="1625" width="120" height="50" as="geometry" />
        </mxCell>
        <mxCell id="ljeEJ4leO2OX1EdWCJa--78" value="public" style="text;html=1;align=center;verticalAlign=middle;resizable=0;points=[];autosize=1;strokeColor=none;fillColor=none;fontSize=18;" vertex="1" parent="1">
          <mxGeometry x="80" y="1590" width="60" height="30" as="geometry" />
        </mxCell>
        <mxCell id="ljeEJ4leO2OX1EdWCJa--79" value="classification of variables" style="text;html=1;align=center;verticalAlign=middle;resizable=0;points=[];autosize=1;strokeColor=none;fillColor=none;fontSize=18;fontStyle=1" vertex="1" parent="1">
          <mxGeometry x="275" y="1745" width="230" height="30" as="geometry" />
        </mxCell>
        <mxCell id="ljeEJ4leO2OX1EdWCJa--81" value="Instance" style="text;html=1;align=center;verticalAlign=middle;resizable=0;points=[];autosize=1;strokeColor=none;fillColor=none;fontSize=18;" vertex="1" parent="1">
          <mxGeometry x="77.5" y="1820" width="80" height="30" as="geometry" />
        </mxCell>
        <mxCell id="ljeEJ4leO2OX1EdWCJa--82" value="Local" style="text;html=1;align=center;verticalAlign=middle;resizable=0;points=[];autosize=1;strokeColor=none;fillColor=none;fontSize=18;" vertex="1" parent="1">
          <mxGeometry x="70" y="1910" width="60" height="30" as="geometry" />
        </mxCell>
        <mxCell id="ljeEJ4leO2OX1EdWCJa--83" value="If a variable is declared inside class-body, it is called as instance variable" style="text;html=1;align=center;verticalAlign=middle;resizable=0;points=[];autosize=1;strokeColor=none;fillColor=none;fontSize=18;" vertex="1" parent="1">
          <mxGeometry x="70" y="1850" width="600" height="30" as="geometry" />
        </mxCell>
        <mxCell id="ljeEJ4leO2OX1EdWCJa--84" value="If a variable is declared inside method body, it is local variable" style="text;html=1;align=center;verticalAlign=middle;resizable=0;points=[];autosize=1;strokeColor=none;fillColor=none;fontSize=18;" vertex="1" parent="1">
          <mxGeometry x="65" y="1940" width="510" height="30" as="geometry" />
        </mxCell>
        <mxCell id="ljeEJ4leO2OX1EdWCJa--85" value="int x;" style="text;html=1;align=center;verticalAlign=middle;resizable=0;points=[];autosize=1;strokeColor=none;fillColor=none;fontSize=18;" vertex="1" parent="1">
          <mxGeometry x="955" y="1760" width="50" height="30" as="geometry" />
        </mxCell>
        <mxCell id="ljeEJ4leO2OX1EdWCJa--86" value="declaration" style="text;html=1;align=center;verticalAlign=middle;resizable=0;points=[];autosize=1;strokeColor=none;fillColor=none;fontSize=18;" vertex="1" parent="1">
          <mxGeometry x="1065" y="1760" width="100" height="30" as="geometry" />
        </mxCell>
        <mxCell id="ljeEJ4leO2OX1EdWCJa--87" value="int x = 4;" style="text;html=1;align=center;verticalAlign=middle;resizable=0;points=[];autosize=1;strokeColor=none;fillColor=none;fontSize=18;" vertex="1" parent="1">
          <mxGeometry x="955" y="1810" width="80" height="30" as="geometry" />
        </mxCell>
        <mxCell id="ljeEJ4leO2OX1EdWCJa--88" value="initialization" style="text;html=1;align=center;verticalAlign=middle;resizable=0;points=[];autosize=1;strokeColor=none;fillColor=none;fontSize=18;" vertex="1" parent="1">
          <mxGeometry x="1062.5" y="1810" width="110" height="30" as="geometry" />
        </mxCell>
        <mxCell id="ljeEJ4leO2OX1EdWCJa--89" value="x=4" style="text;html=1;align=center;verticalAlign=middle;resizable=0;points=[];autosize=1;strokeColor=none;fillColor=none;fontSize=18;" vertex="1" parent="1">
          <mxGeometry x="950" y="1860" width="50" height="30" as="geometry" />
        </mxCell>
        <mxCell id="ljeEJ4leO2OX1EdWCJa--90" value="assignment" style="text;html=1;align=center;verticalAlign=middle;resizable=0;points=[];autosize=1;strokeColor=none;fillColor=none;fontSize=18;" vertex="1" parent="1">
          <mxGeometry x="1057.5" y="1860" width="110" height="30" as="geometry" />
        </mxCell>
        <mxCell id="ljeEJ4leO2OX1EdWCJa--91" value="Instance" style="text;html=1;align=center;verticalAlign=middle;resizable=0;points=[];autosize=1;strokeColor=none;fillColor=none;fontSize=18;" vertex="1" parent="1">
          <mxGeometry x="75" y="2010" width="80" height="30" as="geometry" />
        </mxCell>
        <mxCell id="ljeEJ4leO2OX1EdWCJa--92" value="Local" style="text;html=1;align=center;verticalAlign=middle;resizable=0;points=[];autosize=1;strokeColor=none;fillColor=none;fontSize=18;" vertex="1" parent="1">
          <mxGeometry x="67.5" y="2100" width="60" height="30" as="geometry" />
        </mxCell>
        <mxCell id="ljeEJ4leO2OX1EdWCJa--93" value="if a programmer does not initialize a local variable, JVM will also not initialize it. It will give a warning about not having a value.&amp;nbsp;&lt;br&gt;However if this un-initialized variable is used, then JVM will give CF(Compilation Failure)" style="text;html=1;align=center;verticalAlign=middle;resizable=0;points=[];autosize=1;strokeColor=none;fillColor=none;fontSize=18;" vertex="1" parent="1">
          <mxGeometry x="67.5" y="2130" width="1020" height="50" as="geometry" />
        </mxCell>
        <mxCell id="ljeEJ4leO2OX1EdWCJa--94" value="If a programmer does not initialize instance variable, JVM will initialize it for us. it will assign default value to it.&amp;nbsp;" style="text;html=1;align=center;verticalAlign=middle;resizable=0;points=[];autosize=1;strokeColor=none;fillColor=none;fontSize=18;" vertex="1" parent="1">
          <mxGeometry x="75" y="2040" width="890" height="30" as="geometry" />
        </mxCell>
        <mxCell id="ljeEJ4leO2OX1EdWCJa--95" value="int x=0" style="text;html=1;align=center;verticalAlign=middle;resizable=0;points=[];autosize=1;strokeColor=none;fillColor=none;fontSize=18;" vertex="1" parent="1">
          <mxGeometry x="1050" y="2040" width="70" height="30" as="geometry" />
        </mxCell>
        <mxCell id="ljeEJ4leO2OX1EdWCJa--97" value="Instance" style="text;html=1;align=center;verticalAlign=middle;resizable=0;points=[];autosize=1;strokeColor=none;fillColor=none;fontSize=18;" vertex="1" parent="1">
          <mxGeometry x="72.5" y="2280" width="80" height="30" as="geometry" />
        </mxCell>
        <mxCell id="ljeEJ4leO2OX1EdWCJa--98" value="Local" style="text;html=1;align=center;verticalAlign=middle;resizable=0;points=[];autosize=1;strokeColor=none;fillColor=none;fontSize=18;" vertex="1" parent="1">
          <mxGeometry x="65" y="2350" width="60" height="30" as="geometry" />
        </mxCell>
        <mxCell id="ljeEJ4leO2OX1EdWCJa--99" value="The scope of instance variable is in the entire class." style="text;html=1;align=center;verticalAlign=middle;resizable=0;points=[];autosize=1;strokeColor=none;fillColor=none;fontSize=18;" vertex="1" parent="1">
          <mxGeometry x="93.75" y="2310" width="430" height="30" as="geometry" />
        </mxCell>
        <mxCell id="ljeEJ4leO2OX1EdWCJa--100" value="The scope of local variable is in local method in which it is declared&amp;nbsp;" style="text;html=1;align=center;verticalAlign=middle;resizable=0;points=[];autosize=1;strokeColor=none;fillColor=none;fontSize=18;" vertex="1" parent="1">
          <mxGeometry x="83.75" y="2380" width="550" height="30" as="geometry" />
        </mxCell>
        <mxCell id="ljeEJ4leO2OX1EdWCJa--113" value="instance" style="text;html=1;align=center;verticalAlign=middle;resizable=0;points=[];autosize=1;strokeColor=none;fillColor=none;fontSize=18;" vertex="1" parent="1">
          <mxGeometry x="75" y="2465" width="80" height="30" as="geometry" />
        </mxCell>
        <mxCell id="ljeEJ4leO2OX1EdWCJa--114" value="Local" style="text;html=1;align=center;verticalAlign=middle;resizable=0;points=[];autosize=1;strokeColor=none;fillColor=none;fontSize=18;" vertex="1" parent="1">
          <mxGeometry x="75" y="2520" width="60" height="30" as="geometry" />
        </mxCell>
        <mxCell id="ljeEJ4leO2OX1EdWCJa--115" value="All instance variables are saved in the heap.&amp;nbsp;" style="text;html=1;align=center;verticalAlign=middle;resizable=0;points=[];autosize=1;strokeColor=none;fillColor=none;fontSize=18;" vertex="1" parent="1">
          <mxGeometry x="120" y="2490" width="370" height="30" as="geometry" />
        </mxCell>
        <mxCell id="ljeEJ4leO2OX1EdWCJa--117" value="instance" style="text;html=1;align=center;verticalAlign=middle;resizable=0;points=[];autosize=1;strokeColor=none;fillColor=none;fontSize=18;" vertex="1" parent="1">
          <mxGeometry x="70" y="2635" width="80" height="30" as="geometry" />
        </mxCell>
        <mxCell id="ljeEJ4leO2OX1EdWCJa--118" value="Local" style="text;html=1;align=center;verticalAlign=middle;resizable=0;points=[];autosize=1;strokeColor=none;fillColor=none;fontSize=18;" vertex="1" parent="1">
          <mxGeometry x="72.5" y="2735" width="60" height="30" as="geometry" />
        </mxCell>
        <mxCell id="ljeEJ4leO2OX1EdWCJa--120" value="Heap and Stack" style="text;html=1;align=center;verticalAlign=middle;resizable=0;points=[];autosize=1;strokeColor=none;fillColor=none;fontSize=18;" vertex="1" parent="1">
          <mxGeometry x="375" y="2820" width="140" height="30" as="geometry" />
        </mxCell>
        <mxCell id="ljeEJ4leO2OX1EdWCJa--121" value="HEAP" style="text;html=1;align=center;verticalAlign=middle;resizable=0;points=[];autosize=1;strokeColor=none;fillColor=none;fontSize=18;fontStyle=1" vertex="1" parent="1">
          <mxGeometry x="680" y="2880" width="70" height="30" as="geometry" />
        </mxCell>
        <mxCell id="ljeEJ4leO2OX1EdWCJa--122" value="1000X:&amp;nbsp;" style="text;html=1;align=center;verticalAlign=middle;resizable=0;points=[];autosize=1;strokeColor=none;fillColor=none;fontSize=18;" vertex="1" parent="1">
          <mxGeometry x="510" y="2935" width="80" height="30" as="geometry" />
        </mxCell>
        <mxCell id="ljeEJ4leO2OX1EdWCJa--123" value="2000X:&amp;nbsp;" style="text;html=1;align=center;verticalAlign=middle;resizable=0;points=[];autosize=1;strokeColor=none;fillColor=none;fontSize=18;" vertex="1" parent="1">
          <mxGeometry x="510" y="2990" width="80" height="30" as="geometry" />
        </mxCell>
        <mxCell id="ljeEJ4leO2OX1EdWCJa--124" value="3000X:&amp;nbsp;" style="text;html=1;align=center;verticalAlign=middle;resizable=0;points=[];autosize=1;strokeColor=none;fillColor=none;fontSize=18;" vertex="1" parent="1">
          <mxGeometry x="510" y="3050" width="80" height="30" as="geometry" />
        </mxCell>
        <mxCell id="ljeEJ4leO2OX1EdWCJa--125" value="STACK" style="text;html=1;align=center;verticalAlign=middle;resizable=0;points=[];autosize=1;strokeColor=none;fillColor=none;fontSize=18;fontStyle=1" vertex="1" parent="1">
          <mxGeometry x="122.5" y="2920" width="80" height="30" as="geometry" />
        </mxCell>
        <mxCell id="ljeEJ4leO2OX1EdWCJa--131" value="A a : 1000X" style="text;whiteSpace=wrap;html=1;fontSize=18;" vertex="1" parent="1">
          <mxGeometry x="130" y="2965" width="110" height="40" as="geometry" />
        </mxCell>
        <mxCell id="ljeEJ4leO2OX1EdWCJa--132" value="AObj" style="text;html=1;align=center;verticalAlign=middle;resizable=0;points=[];autosize=1;strokeColor=none;fillColor=none;fontSize=18;" vertex="1" parent="1">
          <mxGeometry x="600" y="2935" width="60" height="30" as="geometry" />
        </mxCell>
        <mxCell id="ljeEJ4leO2OX1EdWCJa--133" value=": y(int) : 5" style="text;html=1;strokeColor=none;fillColor=none;align=center;verticalAlign=middle;whiteSpace=wrap;rounded=0;fontSize=18;" vertex="1" parent="1">
          <mxGeometry x="770" y="2935" width="160" height="30" as="geometry" />
        </mxCell>
        <mxCell id="ljeEJ4leO2OX1EdWCJa--134" value=": x(int) : 0" style="text;html=1;strokeColor=none;fillColor=none;align=center;verticalAlign=middle;whiteSpace=wrap;rounded=0;fontSize=18;" vertex="1" parent="1">
          <mxGeometry x="625" y="2935" width="160" height="30" as="geometry" />
        </mxCell>
        <mxCell id="ljeEJ4leO2OX1EdWCJa--135" value="" style="endArrow=none;html=1;rounded=0;fontSize=18;" edge="1" parent="1">
          <mxGeometry width="50" height="50" relative="1" as="geometry">
            <mxPoint x="727" y="2965" as="sourcePoint" />
            <mxPoint x="747" y="2935" as="targetPoint" />
          </mxGeometry>
        </mxCell>
        <mxCell id="ljeEJ4leO2OX1EdWCJa--136" value="10" style="text;html=1;align=center;verticalAlign=middle;resizable=0;points=[];autosize=1;strokeColor=none;fillColor=none;fontSize=18;" vertex="1" parent="1">
          <mxGeometry x="745" y="2935" width="40" height="30" as="geometry" />
        </mxCell>
        <mxCell id="ljeEJ4leO2OX1EdWCJa--137" value="A a1 : 2000X" style="text;whiteSpace=wrap;html=1;fontSize=18;" vertex="1" parent="1">
          <mxGeometry x="127.5" y="3005" width="112.5" height="40" as="geometry" />
        </mxCell>
        <mxCell id="ljeEJ4leO2OX1EdWCJa--138" value="AObj" style="text;html=1;align=center;verticalAlign=middle;resizable=0;points=[];autosize=1;strokeColor=none;fillColor=none;fontSize=18;" vertex="1" parent="1">
          <mxGeometry x="600" y="2990" width="60" height="30" as="geometry" />
        </mxCell>
        <mxCell id="ljeEJ4leO2OX1EdWCJa--139" value=":x(int) : 0" style="text;html=1;align=center;verticalAlign=middle;resizable=0;points=[];autosize=1;strokeColor=none;fillColor=none;fontSize=18;" vertex="1" parent="1">
          <mxGeometry x="667.5" y="2990" width="90" height="30" as="geometry" />
        </mxCell>
        <mxCell id="ljeEJ4leO2OX1EdWCJa--140" value=":y(int) : 5" style="text;html=1;align=center;verticalAlign=middle;resizable=0;points=[];autosize=1;strokeColor=none;fillColor=none;fontSize=18;" vertex="1" parent="1">
          <mxGeometry x="805" y="2990" width="90" height="30" as="geometry" />
        </mxCell>
      </root>
    </mxGraphModel>
  </diagram>
</mxfile>
